<svg version="1.1" id="Icon_Set" xmlns="http://www.w3.org/2000/svg" x="0" y="0" viewBox="0 0 512 512" style="enable-background:new 0 0 512 512" xml:space="preserve"><style>.st0{fill:#4c4372}.st2{fill:#fd919e}.st5{fill:#a4cff2}</style><circle cx="256" cy="256" r="207" style="fill:#f0c48a"/><path class="st5" d="M474.704 260.07H37.295c-17.36 0-31.433-14.073-31.433-31.433v-57.628c0-17.36 14.073-31.433 31.433-31.433h437.409c17.36 0 31.433 14.073 31.433 31.433v57.628c0 17.36-14.073 31.433-31.433 31.433z"/><path d="M430.689 472.155H81.311c-17.36 0-31.433-14.073-31.433-31.433V260.07h412.244v180.652c0 17.36-14.073 31.433-31.433 31.433z" style="fill:#d3e6f8"/><path d="M474.705 139.576h-53.903c17.36 0 31.433 14.073 31.433 31.433v57.628c0 17.36-14.073 31.433-31.433 31.433h53.903c17.36 0 31.433-14.073 31.433-31.433v-57.628c-.001-17.361-14.074-31.433-31.433-31.433z" style="fill:#7babf1"/><path class="st5" d="M424.303 260.07v180.652c0 17.36-14.073 31.433-31.433 31.433h37.819c17.36 0 31.433-14.073 31.433-31.433V260.07h-37.819z"/><path class="st0" d="M474.704 265.933H37.296C16.731 265.933 0 249.202 0 228.638v-57.629c0-20.565 16.731-37.295 37.296-37.295h437.408c20.565 0 37.296 16.73 37.296 37.295v57.629c0 20.564-16.731 37.295-37.296 37.295zM37.296 145.439c-14.1 0-25.571 11.471-25.571 25.57v57.629c0 14.099 11.471 25.57 25.571 25.57h437.408c14.099 0 25.571-11.471 25.571-25.57v-57.629c0-14.1-11.472-25.57-25.571-25.57H37.296z"/><path class="st0" d="M430.689 478.018H81.311c-20.565 0-37.296-16.731-37.296-37.296V260.07a5.863 5.863 0 0 1 11.725 0v180.651c0 14.1 11.472 25.571 25.571 25.571h349.378c14.099 0 25.57-11.471 25.57-25.571V260.07a5.863 5.863 0 0 1 11.726 0v180.651c0 20.566-16.731 37.297-37.296 37.297z"/><path class="st2" d="M140.652 297.805c-12.157 0-22.011-9.855-22.011-22.012v-31.445c0-12.156 9.854-22.012 22.011-22.012s22.012 9.855 22.012 22.012v31.445c0 12.157-9.855 22.012-22.012 22.012zM373.99 297.805c-12.157 0-22.012-9.855-22.012-22.012v-31.445c0-12.156 9.855-22.012 22.012-22.012s22.012 9.855 22.012 22.012v31.445c-.001 12.157-9.856 22.012-22.012 22.012zM396.001 139.576h-47.168V96.971c0-5.491-4.466-9.958-9.957-9.958h-163.11c-5.491 0-9.958 4.467-9.958 9.958v42.605h-47.167V96.971c0-31.499 25.626-57.126 57.126-57.126h163.11c31.499 0 57.125 25.627 57.125 57.126v42.605z"/><path class="st0" d="M396.002 145.439h-47.168a5.863 5.863 0 0 1-5.863-5.862V96.971a4.1 4.1 0 0 0-4.094-4.095H175.766a4.1 4.1 0 0 0-4.095 4.095v42.605a5.863 5.863 0 0 1-5.863 5.862h-47.167a5.863 5.863 0 0 1-5.862-5.862V96.971c0-34.732 28.255-62.988 62.987-62.988h163.111c34.732 0 62.987 28.256 62.987 62.988v42.605a5.863 5.863 0 0 1-5.862 5.863zm-41.306-11.726h35.443V96.971c0-28.267-22.996-51.263-51.262-51.263H175.766c-28.266 0-51.262 22.997-51.262 51.263v36.743h35.442V96.971c0-8.724 7.097-15.82 15.82-15.82h163.111c8.723 0 15.819 7.097 15.819 15.82v36.742zM140.653 303.667c-15.371 0-27.874-12.504-27.874-27.874v-31.445c0-15.37 12.503-27.874 27.874-27.874 15.37 0 27.874 12.504 27.874 27.874v31.445c0 15.37-12.504 27.874-27.874 27.874zm0-75.468c-8.905 0-16.149 7.244-16.149 16.148v31.445c0 8.904 7.244 16.149 16.149 16.149 8.904 0 16.148-7.245 16.148-16.149v-31.445c0-8.904-7.244-16.148-16.148-16.148zM373.989 303.667c-15.37 0-27.874-12.504-27.874-27.874v-31.445c0-15.37 12.504-27.874 27.874-27.874 15.371 0 27.875 12.504 27.875 27.874v31.445c0 15.37-12.504 27.874-27.875 27.874zm0-75.468c-8.904 0-16.148 7.244-16.148 16.148v31.445c0 8.904 7.244 16.149 16.148 16.149 8.905 0 16.15-7.245 16.15-16.149v-31.445c0-8.904-7.245-16.148-16.15-16.148z"/><path class="st2" d="M313.531 360.057c0-22.983-13.481-42.811-32.963-52.027v47.711L256 370.057l-24.568-14.316V308.03c-19.482 9.217-32.963 29.044-32.963 52.027 0 22.113 12.483 41.301 30.78 50.932v61.167h53.502v-61.167c18.297-9.632 30.78-28.819 30.78-50.932z"/><path class="st0" d="M282.751 478.018h-53.502a5.863 5.863 0 0 1-5.863-5.862v-57.741c-19.075-11.442-30.78-31.953-30.78-54.357 0-24.388 14.256-46.89 36.319-57.327a5.862 5.862 0 0 1 8.369 5.299v44.342l18.706 10.9 18.706-10.9V308.03a5.864 5.864 0 0 1 8.369-5.299c22.063 10.437 36.319 32.939 36.319 57.327 0 22.405-11.705 42.915-30.781 54.357v57.741a5.863 5.863 0 0 1-5.862 5.862zm-47.639-11.725h41.776v-55.304a5.865 5.865 0 0 1 3.132-5.189c17.054-8.976 27.649-26.503 27.649-45.743 0-16.593-8.1-32.117-21.238-41.742v37.426a5.86 5.86 0 0 1-2.911 5.065l-24.569 14.316a5.86 5.86 0 0 1-5.902 0l-24.569-14.316a5.86 5.86 0 0 1-2.911-5.065v-37.426c-13.139 9.625-21.238 25.149-21.238 41.742 0 19.24 10.594 36.768 27.649 45.743a5.867 5.867 0 0 1 3.132 5.189v55.304z"/></svg>